<svg width="210" height="51" viewBox="0 0 210 51" fill="none" xmlns="http://www.w3.org/2000/svg">
<path d="M74.2038 26.1675L74.4871 26.557L74.1684 30.1328H59.8651L60.1129 23.3352L59.8651 7.33239H74.31L74.5933 7.72184L74.2392 11.2977L68.787 11.1207L64.6801 11.1561L64.5738 16.6437L68.5037 16.7146L72.2212 16.6083L72.5044 16.9624L72.1858 20.5382L68.1497 20.432L64.503 20.4674L64.4676 22.9103L64.5738 26.3445L68.5745 26.3799L74.2038 26.1675ZM88.3335 7.04916C90.5522 7.04916 92.5466 7.50942 94.3168 8.42993L93.4671 12.4306L93.0777 12.6076C92.3696 12.112 91.5907 11.7225 90.741 11.4393C89.8913 11.1561 89.018 11.0145 88.1211 11.0145C84.3682 11.0145 82.4918 13.481 82.4918 18.414C82.4918 21.0811 82.9756 23.0873 83.9433 24.4327C84.9347 25.7545 86.3744 26.4154 88.2627 26.4154C89.136 26.4154 90.0329 26.2855 90.9534 26.0259C91.8975 25.7427 92.7472 25.365 93.5025 24.893L93.9274 25.1408L93.5379 29.2123C91.7441 30.0384 89.8559 30.4515 87.8732 30.4515C84.4744 30.4515 81.8781 29.4601 80.0843 27.4775C78.3141 25.4948 77.4289 22.6507 77.4289 18.945C77.4289 15.1686 78.3731 12.2418 80.2613 10.1647C82.1731 8.08769 84.8639 7.04916 88.3335 7.04916ZM108.287 7.01375C111.497 7.01375 113.964 7.99328 115.687 9.95232C117.434 11.8878 118.307 14.6493 118.307 18.2369C118.307 22.155 117.363 25.1762 115.475 27.3005C113.586 29.4247 110.919 30.4869 107.473 30.4869C104.287 30.4869 101.82 29.4955 100.074 27.5129C98.3506 25.5066 97.4891 22.6743 97.4891 19.0158C97.4891 15.1686 98.4214 12.2064 100.286 10.1293C102.174 8.05228 104.841 7.01375 108.287 7.01375ZM107.863 10.8728C105.974 10.8728 104.605 11.4629 103.756 12.6431C102.906 13.8232 102.481 15.7468 102.481 18.414C102.481 21.4587 102.894 23.6302 103.72 24.9284C104.57 26.2265 105.963 26.8756 107.898 26.8756C109.786 26.8756 111.155 26.2855 112.005 25.1054C112.855 23.9016 113.279 21.9426 113.279 19.2283C113.279 16.2307 112.855 14.0946 112.005 12.8201C111.179 11.5219 109.798 10.8728 107.863 10.8728ZM135.573 21.0693C137.414 23.9961 139.244 26.6396 141.061 28.9999L140.99 29.5309C139.456 30.0738 137.887 30.3924 136.282 30.4869L135.786 30.0974C134.086 27.1706 132.706 24.6215 131.644 22.4501H128.209V22.9103L128.422 30.1328H123.607L123.855 23.3352L123.607 7.33239L132.352 7.29699C134.736 7.29699 136.577 7.88706 137.875 9.06721C139.173 10.2238 139.822 11.8878 139.822 14.0592C139.822 15.5226 139.444 16.868 138.689 18.0953C137.957 19.2991 136.919 20.2904 135.573 21.0693ZM128.28 18.7326L131.785 18.8742C133.791 18.1897 134.795 16.7382 134.795 14.5195C134.795 13.3157 134.464 12.4188 133.803 11.8288C133.166 11.2151 132.175 10.8846 130.829 10.8374L128.422 10.979L128.28 18.7326ZM150.863 22.9103L151.075 30.1328H146.26L146.508 23.3352L146.26 7.33239H151.146L150.863 22.9103ZM175.997 18.9096L175.962 21.919C175.985 24.6333 175.194 26.734 173.589 28.221C171.984 29.708 169.683 30.4515 166.686 30.4515C163.806 30.4515 161.611 29.7316 160.1 28.2918C158.59 26.852 157.87 24.7868 157.941 22.096L157.976 18.8034L157.87 7.33239H162.685L162.437 21.4587C162.413 23.1818 162.779 24.4563 163.535 25.2824C164.29 26.1085 165.435 26.5216 166.969 26.5216C170.037 26.5216 171.56 24.9166 171.536 21.7066L171.288 7.33239H176.174L175.997 18.9096ZM206.576 30.1328H202.327L201.973 23.229L201.159 14.4487H200.805L195.706 27.7253H191.989L187.351 14.4487H187.032L186.147 22.7687L185.652 30.1328H181.615L183.917 7.33239H189.44L190.36 10.6958L193.972 21.4941H194.29L198.078 10.6958L199.105 7.33239H204.522L206.576 30.1328Z" fill="#292929"/>
<path d="M67.2783 42.1564L67.3561 45.3281H65.2571L65.3504 42.343L65.2727 36.9479H61.6656L61.5879 42.1564L61.6656 45.3281H59.5667L59.66 42.343L59.5667 35.3154H67.3872L67.2783 42.1564ZM76.0294 43.7423L76.1537 43.8666L76.0138 45.3281H70.6343L70.712 42.996L70.6343 37.4765H76.0915L76.2004 37.632L76.076 39.078L74.0548 39.0002H72.5933L72.5622 40.5861L73.9615 40.6016L75.3142 40.555L75.423 40.6949L75.2986 42.1719L73.8216 42.1253H72.5311L72.5156 42.8094L72.5467 43.8045H73.9149L76.0294 43.7423ZM82.2105 37.461C83.1019 37.461 83.786 37.6735 84.2628 38.0985C84.7396 38.5131 84.978 39.1142 84.978 39.902C84.978 40.8141 84.6619 41.5449 84.0296 42.0942C83.3973 42.6436 82.5526 42.9182 81.4953 42.9182H80.7024L80.7801 45.3281H78.8211L78.8989 42.996L78.8211 37.4765L82.2105 37.461ZM81.8529 41.5189C82.2157 41.4049 82.4852 41.2339 82.6614 41.0059C82.8376 40.7778 82.9257 40.4721 82.9257 40.0886C82.9257 39.6947 82.8117 39.3993 82.5837 39.2023C82.366 39.0054 82.024 38.8966 81.5575 38.8758L80.7801 38.9069L80.7335 41.4723L81.8529 41.5189ZM92.57 43.7423L92.6944 43.8666L92.5545 45.3281H87.175L87.2527 42.996L87.175 37.4765H92.6322L92.741 37.632L92.6167 39.078L90.5955 39.0002H89.134L89.1029 40.5861L90.5022 40.6016L91.8548 40.555L91.9637 40.6949L91.8393 42.1719L90.3623 42.1253H89.0718L89.0562 42.8094L89.0873 43.8045H90.4555L92.57 43.7423ZM98.7512 37.461C99.6426 37.461 100.327 37.6735 100.803 38.0985C101.28 38.5131 101.519 39.1142 101.519 39.902C101.519 40.8141 101.203 41.5449 100.57 42.0942C99.938 42.6436 99.0932 42.9182 98.036 42.9182H97.2431L97.3208 45.3281H95.3618L95.4395 42.996L95.3618 37.4765L98.7512 37.461ZM98.3936 41.5189C98.7564 41.4049 99.0259 41.2339 99.2021 41.0059C99.3783 40.7778 99.4664 40.4721 99.4664 40.0886C99.4664 39.6947 99.3524 39.3993 99.1243 39.2023C98.9067 39.0054 98.5646 38.8966 98.0982 38.8758L97.3208 38.9069L97.2742 41.4723L98.3936 41.5189ZM109.426 45.3281H107.452L107.234 44.1931L107.094 43.7423L105.508 43.7267L104.109 43.7578L104 44.0843L103.767 45.3281H101.854L104.606 37.4765H106.923L109.426 45.3281ZM106.674 42.2652L105.788 39.2645H105.664L104.622 42.2652L105.633 42.2808L106.674 42.2652ZM115.254 40.4928C116.135 40.4928 116.804 40.6742 117.26 41.037C117.726 41.3997 117.96 41.9232 117.96 42.6073C117.96 43.4572 117.628 44.1258 116.965 44.6129C116.301 45.0897 115.379 45.3281 114.197 45.3281H111.554L111.663 42.996L111.554 37.461H117.509L117.618 37.6009L117.493 39.0469L115.394 38.9847H113.513L113.497 40.4928H115.254ZM114.71 43.991C115.488 43.8459 115.876 43.4676 115.876 42.856C115.876 42.5347 115.767 42.286 115.55 42.1098C115.332 41.9335 115.016 41.8506 114.601 41.861L113.466 41.8765L113.451 42.8249L113.482 43.9288L114.71 43.991ZM123.873 37.3522C125.054 37.3522 125.966 37.689 126.609 38.3628C127.252 39.0365 127.573 39.9901 127.573 41.2235C127.573 42.571 127.221 43.6179 126.516 44.3642C125.821 45.1001 124.837 45.4681 123.562 45.4681C122.391 45.4681 121.484 45.126 120.841 44.4419C120.198 43.7474 119.877 42.7731 119.877 41.5189C119.877 40.1922 120.224 39.1661 120.919 38.4405C121.613 37.7149 122.598 37.3522 123.873 37.3522ZM123.702 38.938C123.059 38.938 122.598 39.1142 122.318 39.4666C122.048 39.8087 121.914 40.4047 121.914 41.2546C121.914 41.9387 121.971 42.4777 122.085 42.8716C122.209 43.2551 122.401 43.5298 122.66 43.6956C122.929 43.8615 123.287 43.9444 123.733 43.9444C124.386 43.9444 124.847 43.7734 125.117 43.4313C125.396 43.0893 125.536 42.4881 125.536 41.6278C125.536 40.9437 125.474 40.4099 125.35 40.0264C125.225 39.6325 125.034 39.3526 124.774 39.1868C124.515 39.0209 124.158 38.938 123.702 38.938ZM134.667 37.632L134.559 39.1246L132.973 39.0158H132.522L132.475 42.8094L132.537 45.3281H130.594L130.672 42.996L130.641 39.0158H130.19L128.573 39.1246L128.448 38.9691L128.557 37.4765H134.559L134.667 37.632ZM142.447 45.3281H140.472L140.255 44.1931L140.115 43.7423L138.529 43.7267L137.129 43.7578L137.021 44.0843L136.787 45.3281H134.875L137.627 37.4765H139.944L142.447 45.3281ZM139.695 42.2652L138.809 39.2645H138.684L137.643 42.2652L138.653 42.2808L139.695 42.2652ZM149.939 43.7423L150.063 43.8666L149.923 45.3281H144.543L144.621 42.996L144.543 37.4765H150.001L150.11 37.632L149.985 39.078L147.964 39.0002H146.502L146.471 40.5861L147.871 40.6016L149.223 40.555L149.332 40.6949L149.208 42.1719L147.731 42.1253H146.44L146.425 42.8094L146.456 43.8045H147.824L149.939 43.7423ZM157.877 37.632L157.768 39.1246L156.182 39.0158H155.731L155.684 42.8094L155.747 45.3281H153.803L153.881 42.996L153.85 39.0158H153.399L151.782 39.1246L151.658 38.9691L151.766 37.4765H157.768L157.877 37.632ZM162.85 37.3677C163.627 37.3677 164.353 37.5025 165.027 37.772L164.685 39.42L164.529 39.4977C164.291 39.3319 164.011 39.2023 163.69 39.1091C163.368 39.0158 163.047 38.9691 162.726 38.9691C162.093 38.9691 161.622 39.1557 161.311 39.5288C161 39.8916 160.844 40.4669 160.844 41.2546C160.844 42.9649 161.503 43.82 162.819 43.82C163.13 43.82 163.451 43.7785 163.783 43.6956C164.115 43.6127 164.415 43.4987 164.685 43.3536L164.856 43.4469L164.7 45.0794C164.089 45.3281 163.42 45.4525 162.695 45.4525C161.42 45.4525 160.451 45.1105 159.787 44.4264C159.124 43.7423 158.792 42.7576 158.792 41.4723C158.792 40.1663 159.145 39.1557 159.849 38.4405C160.554 37.7253 161.554 37.3677 162.85 37.3677ZM173.155 42.996L173.264 45.3281H171.274L171.351 42.8094V42.7939H170.185C169.729 43.6749 169.263 44.5093 168.786 45.297L168.6 45.4525C167.874 45.4214 167.221 45.297 166.641 45.0794L166.609 44.8772C167.376 44.0066 168.061 43.1566 168.662 42.3274C167.615 41.8195 167.091 41.0629 167.091 40.0575C167.091 39.5496 167.226 39.0987 167.496 38.7048C167.765 38.3006 168.143 37.9896 168.631 37.772C169.118 37.5439 169.667 37.4299 170.279 37.4299L173.264 37.461L173.155 42.996ZM171.32 41.3013L171.274 38.8914L170.434 38.8603C169.584 38.881 169.159 39.2749 169.159 40.0419C169.159 40.384 169.242 40.6638 169.408 40.8815C169.584 41.0888 169.859 41.2495 170.232 41.3635L171.32 41.3013ZM184.129 41.2702C184.679 41.4049 185.083 41.6226 185.342 41.9232C185.612 42.2134 185.746 42.6021 185.746 43.0893C185.746 43.877 185.42 44.4575 184.767 44.8306C184.114 45.2037 183.145 45.3903 181.859 45.3903C181.289 45.3903 180.486 45.3696 179.449 45.3281L179.527 42.996L179.449 37.4765L182.606 37.461C183.476 37.461 184.155 37.632 184.642 37.9741C185.14 38.3161 185.389 38.8085 185.389 39.4511C185.389 39.8657 185.28 40.2285 185.062 40.5394C184.845 40.8504 184.534 41.094 184.129 41.2702ZM183.352 39.7154C183.352 39.3941 183.238 39.1712 183.01 39.0469C182.792 38.9225 182.404 38.8603 181.844 38.8603H181.362L181.331 40.7105L182.466 40.7416C182.766 40.669 182.989 40.555 183.134 40.3995C183.279 40.2337 183.352 40.0056 183.352 39.7154ZM182.201 44.0221C182.699 44.0221 183.077 43.9392 183.336 43.7734C183.606 43.5971 183.741 43.338 183.741 42.996C183.741 42.7472 183.653 42.5503 183.476 42.4052C183.3 42.26 183.031 42.146 182.668 42.0631L181.315 42.0942L181.3 42.8094L181.331 43.9755C181.662 44.0066 181.953 44.0221 182.201 44.0221ZM191.634 37.3677C192.412 37.3677 193.137 37.5025 193.811 37.772L193.469 39.42L193.314 39.4977C193.075 39.3319 192.795 39.2023 192.474 39.1091C192.153 39.0158 191.831 38.9691 191.51 38.9691C190.878 38.9691 190.406 39.1557 190.095 39.5288C189.784 39.8916 189.629 40.4669 189.629 41.2546C189.629 42.9649 190.287 43.82 191.603 43.82C191.914 43.82 192.236 43.7785 192.567 43.6956C192.899 43.6127 193.2 43.4987 193.469 43.3536L193.64 43.4469L193.485 45.0794C192.873 45.3281 192.205 45.4525 191.479 45.4525C190.204 45.4525 189.235 45.1105 188.572 44.4264C187.908 43.7423 187.577 42.7576 187.577 41.4723C187.577 40.1663 187.929 39.1557 188.634 38.4405C189.339 37.7253 190.339 37.3677 191.634 37.3677ZM201.628 43.7423L201.753 43.8666L201.613 45.3281H196.233L196.311 42.996L196.233 37.4765H201.691L201.8 37.632L201.675 39.078L199.654 39.0002H198.192L198.161 40.5861L199.561 40.6016L200.913 40.555L201.022 40.6949L200.898 42.1719L199.421 42.1253H198.13L198.115 42.8094L198.146 43.8045H199.514L201.628 43.7423ZM197.664 34.1027C197.954 34.1027 198.182 34.1856 198.348 34.3515C198.514 34.5173 198.597 34.7505 198.597 35.0511C198.597 35.3724 198.503 35.6264 198.317 35.8129C198.141 35.9995 197.897 36.0928 197.586 36.0928C197.286 36.0928 197.052 36.0099 196.886 35.844C196.721 35.6782 196.638 35.4398 196.638 35.1288C196.638 34.8179 196.726 34.5691 196.902 34.3826C197.089 34.196 197.343 34.1027 197.664 34.1027ZM200.354 34.1027C200.644 34.1027 200.872 34.1856 201.038 34.3515C201.204 34.5173 201.286 34.7505 201.286 35.0511C201.286 35.3724 201.193 35.6264 201.007 35.8129C200.83 35.9995 200.592 36.0928 200.291 36.0928C199.991 36.0928 199.758 36.0099 199.592 35.844C199.426 35.6782 199.343 35.4398 199.343 35.1288C199.343 34.8179 199.431 34.5691 199.607 34.3826C199.794 34.196 200.043 34.1027 200.354 34.1027ZM206.131 37.5854L205.726 42.4363L204.56 42.5917L204.374 42.4052L204.28 37.6631L204.451 37.4299L205.897 37.3522L206.131 37.5854ZM205.042 43.4469C205.343 43.4469 205.576 43.5298 205.742 43.6956C205.908 43.8615 205.991 44.0947 205.991 44.3953C205.991 44.7166 205.897 44.9705 205.711 45.1571C205.535 45.3437 205.291 45.437 204.98 45.437C204.679 45.437 204.441 45.354 204.265 45.1882C204.099 45.0224 204.016 44.784 204.016 44.473C204.016 44.1517 204.109 43.9029 204.296 43.7267C204.482 43.5401 204.731 43.4469 205.042 43.4469Z" fill="#1C6758"/>
<path fill-rule="evenodd" clip-rule="evenodd" d="M41.8634 37.0326L37.5327 32.7019L36.5222 44.876L48.6079 43.75L44.8949 39.9679C48.6312 35.2867 49.9177 29.4779 49.8993 24.4254C49.8739 17.4482 46.6206 11.1861 42.104 6.6695C36.7628 1.66511 30.5963 -0.0211677 24.7258 0.000200139L24.7411 4.18653C28.4863 4.18653 34.5791 5.05117 39.4575 10.0859C42.8449 13.4734 45.6648 18.913 45.6648 23.7036C45.6648 28.4943 45.3082 31.5826 41.8634 37.0326ZM7.98776 13.0222L12.1741 17.0642L13.0403 4.79381L1.01049 6.0449L5.00438 9.99067C1.25109 14.6582 4.80213e-08 20.2881 0 25.3406C-1.75787e-07 32.3179 3.24699 38.5154 7.74716 43.0484C12.6553 47.5235 18.8627 49.8813 24.7332 49.8813V45.695C21.5573 45.5506 15.2537 44.6845 10.3937 39.632C7.01858 36.2322 4.26515 31.0936 4.28259 26.303C4.30003 21.5124 4.52319 18.4596 7.98776 13.0222ZM34.6451 11.4363C34.6451 11.4363 35.7518 13.6017 36.233 15.767C36.699 17.8641 37.2435 21.012 36.618 23.5142C34.7654 30.9245 27.5688 35.3805 23.7702 35.7846C19.9716 36.1886 18.044 35.9289 15.7824 34.3891C14.9633 35.5202 14.7596 36.7616 14.6743 37.2813C14.6544 37.4027 14.6409 37.4848 14.6276 37.5168C14.4473 37.9499 13.0397 38.0943 12.366 37.0356C12.2412 36.4535 12.7116 35.3292 13.0417 34.5402C13.0935 34.4163 13.1419 34.3006 13.184 34.1966C14.2921 31.4762 16.8892 29.3847 19.9688 27.1712C21.9898 25.8239 25.1175 24.3803 25.1175 24.3803C25.1175 24.3803 22.1342 24.5247 20.5462 24.9578C17.8034 25.7058 16.0712 26.8825 13.2321 29.5291C13.2128 29.3415 13.2494 28.9567 13.2828 28.6043C13.3064 28.3567 13.3284 28.125 13.3284 27.9893C14.0502 21.8782 16.6967 18.991 24.8288 18.173L26.1762 17.9324C31.1324 16.8738 33.1895 13.9688 34.6451 11.4363Z" fill="#206758"/>
</svg>
